<svg width="36" height="37" viewBox="0 0 36 37" fill="none" xmlns="http://www.w3.org/2000/svg">
<path fill-rule="evenodd" clip-rule="evenodd" d="M30 9.25C30 8.83579 29.6642 8.5 29.25 8.5L6.75 8.5C6.33578 8.5 6 8.83579 6 9.25C6 9.66422 6.33579 10 6.75 10L29.25 10C29.6642 10 30 9.66421 30 9.25Z" fill="#A9AABC"/>
<path fill-rule="evenodd" clip-rule="evenodd" d="M24 18.5C24 18.0858 23.6642 17.75 23.25 17.75L6.75 17.75C6.33579 17.75 6 18.0858 6 18.5C6 18.9142 6.33579 19.25 6.75 19.25L23.25 19.25C23.6642 19.25 24 18.9142 24 18.5Z" fill="#A9AABC"/>
<path fill-rule="evenodd" clip-rule="evenodd" d="M18 27.75C18 27.3358 17.6642 27 17.25 27L6.75 27C6.33579 27 6 27.3358 6 27.75C6 28.1642 6.33579 28.5 6.75 28.5L17.25 28.5C17.6642 28.5 18 28.1642 18 27.75Z" fill="#A9AABC"/>
</svg>
