<svg width="28" height="29" viewBox="0 0 28 29" fill="none" xmlns="http://www.w3.org/2000/svg">
<path fill-rule="evenodd" clip-rule="evenodd" d="M26 5.25C26 4.83579 25.6642 4.5 25.25 4.5L2.75 4.5C2.33578 4.5 2 4.83579 2 5.25C2 5.66422 2.33579 6 2.75 6L25.25 6C25.6642 6 26 5.66421 26 5.25Z" fill="#A9AABC"/>
<path fill-rule="evenodd" clip-rule="evenodd" d="M20 14.5C20 14.0858 19.6642 13.75 19.25 13.75L2.75 13.75C2.33579 13.75 2 14.0858 2 14.5C2 14.9142 2.33579 15.25 2.75 15.25L19.25 15.25C19.6642 15.25 20 14.9142 20 14.5Z" fill="#A9AABC"/>
<path fill-rule="evenodd" clip-rule="evenodd" d="M14 23.75C14 23.3358 13.6642 23 13.25 23L2.75 23C2.33579 23 2 23.3358 2 23.75C2 24.1642 2.33579 24.5 2.75 24.5L13.25 24.5C13.6642 24.5 14 24.1642 14 23.75Z" fill="#A9AABC"/>
</svg>
